<svg width="97" height="18" viewBox="0 0 97 18" fill="none" xmlns="http://www.w3.org/2000/svg">
<path d="M7.44828 0L9.12052 6.21885H14.532L10.154 10.0623L11.8263 16.2812L7.44828 12.4377L3.07029 16.2812L4.74253 10.0623L0.364544 6.21885H5.77603L7.44828 0Z" fill="#FFA92E"/>
<path d="M27.8272 0L29.4994 6.21885H34.9109L30.5329 10.0623L32.2052 16.2812L27.8272 12.4377L23.4492 16.2812L25.1214 10.0623L20.7435 6.21885H26.1549L27.8272 0Z" fill="#FFA92E"/>
<path d="M48.2061 0L49.8783 6.21885H55.2898L50.9118 10.0623L52.5841 16.2812L48.2061 12.4377L43.8281 16.2812L45.5003 10.0623L41.1224 6.21885H46.5338L48.2061 0Z" fill="#FFA92E"/>
<path d="M68.585 0L70.2572 6.21885H75.6687L71.2907 10.0623L72.963 16.2812L68.585 12.4377L64.207 16.2812L65.8793 10.0623L61.5013 6.21885H66.9128L68.585 0Z" fill="#FFA92E"/>
<path d="M88.9639 0L90.6361 6.21885H96.0476L91.6696 10.0623L93.3419 16.2812L88.9639 12.4377L84.5859 16.2812L86.2582 10.0623L81.8802 6.21885H87.2917L88.9639 0Z" fill="#FFA92E"/>
</svg>
