<svg width="230" height="24" viewBox="0 0 230 24" fill="none" xmlns="http://www.w3.org/2000/svg">
<path d="M2.35795 4.45455L6.67614 16.6989H6.84659L11.1648 4.45455H13.0114L7.67045 19H5.85227L0.511364 4.45455H2.35795ZM15.0497 19V8.09091H16.7259V19H15.0497ZM15.902 6.27273C15.5753 6.27273 15.2936 6.16146 15.0568 5.93892C14.8248 5.71638 14.7088 5.44886 14.7088 5.13636C14.7088 4.82386 14.8248 4.55634 15.0568 4.33381C15.2936 4.11127 15.5753 4 15.902 4C16.2287 4 16.508 4.11127 16.7401 4.33381C16.9768 4.55634 17.0952 4.82386 17.0952 5.13636C17.0952 5.44886 16.9768 5.71638 16.7401 5.93892C16.508 6.16146 16.2287 6.27273 15.902 6.27273ZM24.3697 19.2273C23.3185 19.2273 22.4118 18.9953 21.6495 18.5312C20.8919 18.0625 20.3072 17.4091 19.8952 16.571C19.488 15.7282 19.2844 14.7481 19.2844 13.6307C19.2844 12.5133 19.488 11.5284 19.8952 10.6761C20.3072 9.81913 20.8801 9.15152 21.614 8.6733C22.3526 8.19034 23.2144 7.94886 24.1992 7.94886C24.7674 7.94886 25.3285 8.04356 25.8825 8.23295C26.4364 8.42235 26.9407 8.73011 27.3952 9.15625C27.8498 9.57765 28.212 10.1364 28.4819 10.8324C28.7518 11.5284 28.8867 12.3854 28.8867 13.4034V14.1136H20.4776V12.6648H27.1822C27.1822 12.0492 27.0591 11.5 26.8129 11.017C26.5714 10.5341 26.2257 10.1529 25.7759 9.87358C25.3308 9.59422 24.8053 9.45455 24.1992 9.45455C23.5316 9.45455 22.954 9.62026 22.4663 9.9517C21.9833 10.2784 21.6116 10.7045 21.3512 11.2301C21.0908 11.7557 20.9606 12.3191 20.9606 12.9205V13.8864C20.9606 14.7102 21.1026 15.4086 21.3867 15.9815C21.6755 16.5497 22.0756 16.983 22.587 17.2812C23.0984 17.5748 23.6926 17.7216 24.3697 17.7216C24.81 17.7216 25.2077 17.66 25.5629 17.5369C25.9227 17.4091 26.2328 17.2197 26.4933 16.9688C26.7537 16.7131 26.9549 16.3958 27.0969 16.017L28.7163 16.4716C28.5458 17.0208 28.2594 17.5038 27.8569 17.9205C27.4544 18.3324 26.9573 18.6544 26.3654 18.8864C25.7736 19.1136 25.1083 19.2273 24.3697 19.2273ZM33.908 19L30.5842 8.09091H32.3455L34.7035 16.4432H34.8171L37.1467 8.09091H38.9364L41.2376 16.4148H41.3512L43.7092 8.09091H45.4705L42.1467 19H40.4989L38.1126 10.6193H37.9421L35.5558 19H33.908ZM56.5217 19.2557C55.8304 19.2557 55.203 19.1255 54.6396 18.8651C54.0761 18.5999 53.6287 18.2188 53.2972 17.7216C52.9658 17.2197 52.8001 16.6136 52.8001 15.9034C52.8001 15.2784 52.9232 14.7718 53.1694 14.3835C53.4156 13.9905 53.7447 13.6828 54.1566 13.4602C54.5685 13.2377 55.0231 13.072 55.5202 12.9631C56.0221 12.8494 56.5264 12.7595 57.033 12.6932C57.6959 12.608 58.2333 12.544 58.6452 12.5014C59.0619 12.4541 59.3649 12.3759 59.5543 12.267C59.7485 12.1581 59.8455 11.9687 59.8455 11.6989V11.642C59.8455 10.9413 59.6538 10.3968 59.2702 10.0085C58.8915 9.62027 58.3162 9.42614 57.5444 9.42614C56.7442 9.42614 56.1168 9.60133 55.6623 9.9517C55.2077 10.3021 54.8881 10.6761 54.7035 11.0739L53.1126 10.5057C53.3967 9.8428 53.7754 9.3267 54.2489 8.95739C54.7272 8.58333 55.248 8.32292 55.8114 8.17614C56.3796 8.02462 56.9383 7.94886 57.4876 7.94886C57.8379 7.94886 58.2404 7.99148 58.695 8.0767C59.1542 8.1572 59.5969 8.32528 60.0231 8.58097C60.454 8.83665 60.8114 9.22254 61.0955 9.73864C61.3796 10.2547 61.5217 10.946 61.5217 11.8125V19H59.8455V17.5227H59.7603C59.6467 17.7595 59.4573 18.0128 59.1921 18.2827C58.927 18.5526 58.5742 18.7822 58.1339 18.9716C57.6935 19.161 57.1561 19.2557 56.5217 19.2557ZM56.7773 17.75C57.4402 17.75 57.9989 17.6198 58.4535 17.3594C58.9128 17.099 59.2584 16.7628 59.4904 16.3509C59.7272 15.9389 59.8455 15.5057 59.8455 15.0511V13.517C59.7745 13.6023 59.6183 13.6804 59.3768 13.7514C59.14 13.8177 58.8654 13.8769 58.5529 13.929C58.2451 13.9763 57.9445 14.0189 57.6509 14.0568C57.3621 14.09 57.1277 14.1184 56.9478 14.142C56.5122 14.1989 56.105 14.2912 55.7262 14.419C55.3522 14.5421 55.0491 14.7292 54.8171 14.9801C54.5898 15.2263 54.4762 15.5625 54.4762 15.9886C54.4762 16.571 54.6916 17.0114 55.1225 17.3097C55.5581 17.6032 56.1097 17.75 56.7773 17.75ZM66.2571 4.45455V19H64.581V4.45455H66.2571ZM71.0032 4.45455V19H69.3271V4.45455H71.0032ZM84.1016 23.3182C83.2919 23.3182 82.5959 23.214 82.0135 23.0057C81.4311 22.8021 80.9458 22.5322 80.5575 22.196C80.174 21.8646 79.8686 21.5095 79.6413 21.1307L80.9766 20.1932C81.1281 20.392 81.3198 20.6193 81.5518 20.875C81.7839 21.1354 82.1011 21.3603 82.5036 21.5497C82.9107 21.7438 83.4434 21.8409 84.1016 21.8409C84.9822 21.8409 85.709 21.6278 86.282 21.2017C86.8549 20.7756 87.1413 20.108 87.1413 19.1989V16.983H86.9993C86.8762 17.1818 86.701 17.428 86.4737 17.7216C86.2512 18.0104 85.9292 18.2685 85.5078 18.4957C85.0911 18.7183 84.5277 18.8295 83.8175 18.8295C82.9368 18.8295 82.1461 18.6212 81.4453 18.2045C80.7493 17.7879 80.1977 17.1818 79.7905 16.3864C79.388 15.5909 79.1868 14.625 79.1868 13.4886C79.1868 12.3712 79.3833 11.3982 79.7763 10.5696C80.1693 9.73627 80.7161 9.09233 81.4169 8.63778C82.1177 8.1785 82.9273 7.94886 83.8459 7.94886C84.5561 7.94886 85.1196 8.06723 85.5362 8.30398C85.9576 8.53598 86.2796 8.80114 86.5021 9.09943C86.7294 9.39299 86.9046 9.63447 87.0277 9.82386H87.1982V8.09091H88.8175V19.3125C88.8175 20.25 88.6044 21.0123 88.1783 21.5994C87.7569 22.1913 87.1887 22.6245 86.4737 22.8991C85.7635 23.1785 84.9728 23.3182 84.1016 23.3182ZM84.0447 17.3239C84.7171 17.3239 85.2853 17.17 85.7493 16.8622C86.2133 16.5545 86.5661 16.1117 86.8075 15.5341C87.049 14.9564 87.1697 14.2652 87.1697 13.4602C87.1697 12.6742 87.0514 11.9806 86.8146 11.3793C86.5779 10.7779 86.2275 10.3068 85.7635 9.96591C85.2995 9.625 84.7266 9.45455 84.0447 9.45455C83.3345 9.45455 82.7427 9.63447 82.2692 9.99432C81.8004 10.3542 81.4477 10.8371 81.2109 11.4432C80.9789 12.0492 80.8629 12.7216 80.8629 13.4602C80.8629 14.2178 80.9813 14.8878 81.218 15.4702C81.4595 16.0478 81.8146 16.5024 82.2834 16.8338C82.7569 17.1605 83.344 17.3239 84.0447 17.3239ZM93.5618 4.45455V19H91.8857V4.45455H93.5618ZM101.064 19.2273C100.079 19.2273 99.2146 18.9929 98.4712 18.5241C97.7326 18.0554 97.1549 17.3996 96.7383 16.5568C96.3263 15.714 96.1204 14.7292 96.1204 13.6023C96.1204 12.4659 96.3263 11.474 96.7383 10.6264C97.1549 9.77888 97.7326 9.12074 98.4712 8.65199C99.2146 8.18324 100.079 7.94886 101.064 7.94886C102.048 7.94886 102.91 8.18324 103.649 8.65199C104.392 9.12074 104.97 9.77888 105.382 10.6264C105.798 11.474 106.007 12.4659 106.007 13.6023C106.007 14.7292 105.798 15.714 105.382 16.5568C104.97 17.3996 104.392 18.0554 103.649 18.5241C102.91 18.9929 102.048 19.2273 101.064 19.2273ZM101.064 17.7216C101.812 17.7216 102.427 17.5298 102.91 17.1463C103.393 16.7628 103.751 16.2585 103.983 15.6335C104.215 15.0085 104.331 14.3314 104.331 13.6023C104.331 12.8731 104.215 12.1937 103.983 11.5639C103.751 10.9342 103.393 10.4252 102.91 10.0369C102.427 9.64867 101.812 9.45455 101.064 9.45455C100.315 9.45455 99.6999 9.64867 99.217 10.0369C98.734 10.4252 98.3765 10.9342 98.1445 11.5639C97.9125 12.1937 97.7965 12.8731 97.7965 13.6023C97.7965 14.3314 97.9125 15.0085 98.1445 15.6335C98.3765 16.2585 98.734 16.7628 99.217 17.1463C99.6999 17.5298 100.315 17.7216 101.064 17.7216ZM108.793 19V4.45455H110.469V9.82386H110.611C110.734 9.63447 110.904 9.39299 111.122 9.09943C111.345 8.80114 111.662 8.53598 112.074 8.30398C112.491 8.06723 113.054 7.94886 113.764 7.94886C114.683 7.94886 115.492 8.1785 116.193 8.63778C116.894 9.09706 117.441 9.74811 117.834 10.5909C118.227 11.4337 118.423 12.428 118.423 13.5739C118.423 14.7292 118.227 15.7306 117.834 16.5781C117.441 17.4209 116.896 18.0743 116.2 18.5384C115.504 18.9976 114.702 19.2273 113.793 19.2273C113.092 19.2273 112.531 19.1113 112.109 18.8793C111.688 18.6425 111.364 18.375 111.136 18.0767C110.909 17.7737 110.734 17.5227 110.611 17.3239H110.412V19H108.793ZM110.44 13.5455C110.44 14.3693 110.561 15.0961 110.803 15.7259C111.044 16.3509 111.397 16.8409 111.861 17.196C112.325 17.5464 112.893 17.7216 113.565 17.7216C114.266 17.7216 114.851 17.5369 115.32 17.1676C115.793 16.7936 116.148 16.2917 116.385 15.6619C116.626 15.0275 116.747 14.322 116.747 13.5455C116.747 12.7784 116.629 12.0871 116.392 11.4716C116.16 10.8513 115.807 10.3613 115.334 10.0014C114.865 9.63684 114.276 9.45455 113.565 9.45455C112.884 9.45455 112.311 9.62737 111.847 9.97301C111.383 10.3139 111.032 10.7921 110.795 11.4077C110.559 12.0185 110.44 12.7311 110.44 13.5455ZM124.197 19.2557C123.506 19.2557 122.879 19.1255 122.315 18.8651C121.752 18.5999 121.304 18.2188 120.973 17.7216C120.642 17.2197 120.476 16.6136 120.476 15.9034C120.476 15.2784 120.599 14.7718 120.845 14.3835C121.091 13.9905 121.42 13.6828 121.832 13.4602C122.244 13.2377 122.699 13.072 123.196 12.9631C123.698 12.8494 124.202 12.7595 124.709 12.6932C125.372 12.608 125.909 12.544 126.321 12.5014C126.738 12.4541 127.041 12.3759 127.23 12.267C127.424 12.1581 127.521 11.9687 127.521 11.6989V11.642C127.521 10.9413 127.33 10.3968 126.946 10.0085C126.567 9.62027 125.992 9.42614 125.22 9.42614C124.42 9.42614 123.793 9.60133 123.338 9.9517C122.884 10.3021 122.564 10.6761 122.379 11.0739L120.788 10.5057C121.072 9.8428 121.451 9.3267 121.925 8.95739C122.403 8.58333 122.924 8.32292 123.487 8.17614C124.055 8.02462 124.614 7.94886 125.163 7.94886C125.514 7.94886 125.916 7.99148 126.371 8.0767C126.83 8.1572 127.273 8.32528 127.699 8.58097C128.13 8.83665 128.487 9.22254 128.771 9.73864C129.055 10.2547 129.197 10.946 129.197 11.8125V19H127.521V17.5227H127.436C127.322 17.7595 127.133 18.0128 126.868 18.2827C126.603 18.5526 126.25 18.7822 125.81 18.9716C125.369 19.161 124.832 19.2557 124.197 19.2557ZM124.453 17.75C125.116 17.75 125.675 17.6198 126.129 17.3594C126.589 17.099 126.934 16.7628 127.166 16.3509C127.403 15.9389 127.521 15.5057 127.521 15.0511V13.517C127.45 13.6023 127.294 13.6804 127.053 13.7514C126.816 13.8177 126.541 13.8769 126.229 13.929C125.921 13.9763 125.62 14.0189 125.327 14.0568C125.038 14.09 124.804 14.1184 124.624 14.142C124.188 14.1989 123.781 14.2912 123.402 14.419C123.028 14.5421 122.725 14.7292 122.493 14.9801C122.266 15.2263 122.152 15.5625 122.152 15.9886C122.152 16.571 122.367 17.0114 122.798 17.3097C123.234 17.6032 123.786 17.75 124.453 17.75ZM133.933 4.45455V19H132.257V4.45455H133.933ZM142.855 4.45455H144.957L149.901 16.5284H150.071L155.014 4.45455H157.116V19H155.469V7.94886H155.327L150.781 19H149.19L144.645 7.94886H144.503V19H142.855V4.45455ZM164.995 19.2273C163.944 19.2273 163.037 18.9953 162.275 18.5312C161.517 18.0625 160.932 17.4091 160.52 16.571C160.113 15.7282 159.909 14.7481 159.909 13.6307C159.909 12.5133 160.113 11.5284 160.52 10.6761C160.932 9.81913 161.505 9.15152 162.239 8.6733C162.978 8.19034 163.839 7.94886 164.824 7.94886C165.392 7.94886 165.953 8.04356 166.507 8.23295C167.061 8.42235 167.566 8.73011 168.02 9.15625C168.475 9.57765 168.837 10.1364 169.107 10.8324C169.377 11.5284 169.512 12.3854 169.512 13.4034V14.1136H161.103V12.6648H167.807C167.807 12.0492 167.684 11.5 167.438 11.017C167.196 10.5341 166.851 10.1529 166.401 9.87358C165.956 9.59422 165.43 9.45455 164.824 9.45455C164.157 9.45455 163.579 9.62026 163.091 9.9517C162.608 10.2784 162.237 10.7045 161.976 11.2301C161.716 11.7557 161.586 12.3191 161.586 12.9205V13.8864C161.586 14.7102 161.728 15.4086 162.012 15.9815C162.301 16.5497 162.701 16.983 163.212 17.2812C163.723 17.5748 164.318 17.7216 164.995 17.7216C165.435 17.7216 165.833 17.66 166.188 17.5369C166.548 17.4091 166.858 17.2197 167.118 16.9688C167.379 16.7131 167.58 16.3958 167.722 16.017L169.341 16.4716C169.171 17.0208 168.884 17.5038 168.482 17.9205C168.079 18.3324 167.582 18.6544 166.99 18.8864C166.399 19.1136 165.733 19.2273 164.995 19.2273ZM172.061 19V8.09091H173.681V9.79545H173.823C174.05 9.21307 174.417 8.76089 174.924 8.43892C175.43 8.11222 176.039 7.94886 176.749 7.94886C177.469 7.94886 178.068 8.11222 178.546 8.43892C179.029 8.76089 179.405 9.21307 179.675 9.79545H179.789C180.068 9.23201 180.487 8.78456 181.046 8.45312C181.605 8.11695 182.275 7.94886 183.056 7.94886C184.031 7.94886 184.829 8.25426 185.449 8.86506C186.069 9.47112 186.38 10.4157 186.38 11.6989V19H184.703V11.6989C184.703 10.8939 184.483 10.3187 184.043 9.97301C183.603 9.62737 183.084 9.45455 182.488 9.45455C181.721 9.45455 181.126 9.68655 180.705 10.1506C180.283 10.6098 180.073 11.1922 180.073 11.8977V19H178.368V11.5284C178.368 10.9081 178.167 10.4086 177.765 10.0298C177.362 9.64631 176.844 9.45455 176.209 9.45455C175.774 9.45455 175.366 9.57055 174.988 9.80256C174.614 10.0346 174.31 10.3565 174.078 10.7685C173.851 11.1757 173.738 11.6468 173.738 12.1818V19H172.061ZM189.672 19V4.45455H191.348V9.82386H191.49C191.613 9.63447 191.783 9.39299 192.001 9.09943C192.224 8.80114 192.541 8.53598 192.953 8.30398C193.369 8.06723 193.933 7.94886 194.643 7.94886C195.562 7.94886 196.371 8.1785 197.072 8.63778C197.773 9.09706 198.32 9.74811 198.713 10.5909C199.106 11.4337 199.302 12.428 199.302 13.5739C199.302 14.7292 199.106 15.7306 198.713 16.5781C198.32 17.4209 197.775 18.0743 197.079 18.5384C196.383 18.9976 195.581 19.2273 194.672 19.2273C193.971 19.2273 193.41 19.1113 192.988 18.8793C192.567 18.6425 192.243 18.375 192.015 18.0767C191.788 17.7737 191.613 17.5227 191.49 17.3239H191.291V19H189.672ZM191.319 13.5455C191.319 14.3693 191.44 15.0961 191.681 15.7259C191.923 16.3509 192.276 16.8409 192.74 17.196C193.204 17.5464 193.772 17.7216 194.444 17.7216C195.145 17.7216 195.73 17.5369 196.199 17.1676C196.672 16.7936 197.027 16.2917 197.264 15.6619C197.505 15.0275 197.626 14.322 197.626 13.5455C197.626 12.7784 197.508 12.0871 197.271 11.4716C197.039 10.8513 196.686 10.3613 196.213 10.0014C195.744 9.63684 195.154 9.45455 194.444 9.45455C193.762 9.45455 193.19 9.62737 192.725 9.97301C192.261 10.3139 191.911 10.7921 191.674 11.4077C191.438 12.0185 191.319 12.7311 191.319 13.5455ZM206.44 19.2273C205.389 19.2273 204.482 18.9953 203.72 18.5312C202.962 18.0625 202.377 17.4091 201.966 16.571C201.558 15.7282 201.355 14.7481 201.355 13.6307C201.355 12.5133 201.558 11.5284 201.966 10.6761C202.377 9.81913 202.95 9.15152 203.684 8.6733C204.423 8.19034 205.285 7.94886 206.27 7.94886C206.838 7.94886 207.399 8.04356 207.953 8.23295C208.507 8.42235 209.011 8.73011 209.466 9.15625C209.92 9.57765 210.282 10.1364 210.552 10.8324C210.822 11.5284 210.957 12.3854 210.957 13.4034V14.1136H202.548V12.6648H209.252C209.252 12.0492 209.129 11.5 208.883 11.017C208.642 10.5341 208.296 10.1529 207.846 9.87358C207.401 9.59422 206.876 9.45455 206.27 9.45455C205.602 9.45455 205.024 9.62026 204.537 9.9517C204.054 10.2784 203.682 10.7045 203.422 11.2301C203.161 11.7557 203.031 12.3191 203.031 12.9205V13.8864C203.031 14.7102 203.173 15.4086 203.457 15.9815C203.746 16.5497 204.146 16.983 204.657 17.2812C205.169 17.5748 205.763 17.7216 206.44 17.7216C206.88 17.7216 207.278 17.66 207.633 17.5369C207.993 17.4091 208.303 17.2197 208.564 16.9688C208.824 16.7131 209.025 16.3958 209.167 16.017L210.787 16.4716C210.616 17.0208 210.33 17.5038 209.927 17.9205C209.525 18.3324 209.028 18.6544 208.436 18.8864C207.844 19.1136 207.179 19.2273 206.44 19.2273ZM213.507 19V8.09091H215.126V9.73864H215.24C215.439 9.19886 215.798 8.76089 216.319 8.42472C216.84 8.08854 217.427 7.92045 218.081 7.92045C218.204 7.92045 218.358 7.92282 218.542 7.92756C218.727 7.93229 218.867 7.93939 218.961 7.94886V9.65341C218.904 9.6392 218.774 9.6179 218.571 9.58949C218.372 9.55634 218.161 9.53977 217.939 9.53977C217.408 9.53977 216.935 9.65104 216.518 9.87358C216.106 10.0914 215.779 10.3944 215.538 10.7827C215.301 11.1662 215.183 11.6042 215.183 12.0966V19H213.507ZM228.675 10.5341L227.17 10.9602C227.075 10.7093 226.935 10.4654 226.751 10.2287C226.571 9.98722 226.325 9.78835 226.012 9.6321C225.7 9.47585 225.299 9.39773 224.812 9.39773C224.144 9.39773 223.588 9.55161 223.143 9.85938C222.702 10.1624 222.482 10.5483 222.482 11.017C222.482 11.4337 222.634 11.7628 222.937 12.0043C223.24 12.2457 223.713 12.447 224.357 12.608L225.977 13.0057C226.952 13.2424 227.679 13.6046 228.157 14.0923C228.635 14.5753 228.874 15.1979 228.874 15.9602C228.874 16.5852 228.694 17.1439 228.335 17.6364C227.979 18.1288 227.482 18.517 226.843 18.8011C226.204 19.0852 225.46 19.2273 224.613 19.2273C223.5 19.2273 222.579 18.9858 221.85 18.5028C221.121 18.0199 220.659 17.3144 220.465 16.3864L222.056 15.9886C222.208 16.5758 222.494 17.0161 222.915 17.3097C223.342 17.6032 223.898 17.75 224.585 17.75C225.366 17.75 225.986 17.5843 226.445 17.2528C226.909 16.9167 227.141 16.5142 227.141 16.0455C227.141 15.6667 227.009 15.3494 226.744 15.0938C226.478 14.8333 226.071 14.6392 225.522 14.5114L223.704 14.0852C222.705 13.8485 221.971 13.4815 221.502 12.9844C221.038 12.4825 220.806 11.8551 220.806 11.1023C220.806 10.4867 220.979 9.94223 221.325 9.46875C221.675 8.99527 222.151 8.62358 222.752 8.35369C223.358 8.08381 224.045 7.94886 224.812 7.94886C225.891 7.94886 226.739 8.18561 227.354 8.65909C227.975 9.13258 228.415 9.75758 228.675 10.5341Z" fill="black"/>
</svg>
